<svg width="750" height="90" viewBox="0 0 75 9" fill="none" xmlns="http://www.w3.org/2000/svg">
<path d="M3.252 7.904C3.028 7.904 2.764 7.852 2.46 7.748C2.156 7.636 1.856 7.496 1.56 7.328C1.272 7.16 1.032 6.984 0.84 6.8C0.656 6.616 0.564 6.448 0.564 6.296C0.564 6.088 0.576 5.824 0.6 5.504C0.632 5.176 0.648 4.832 0.648 4.472V2.396C0.648 1.612 0.808 1.056 1.128 0.728C1.456 0.392 1.908 0.224 2.484 0.224C2.724 0.224 2.968 0.288 3.216 0.416C3.472 0.543999 3.708 0.704 3.924 0.896C4.148 1.088 4.328 1.288 4.464 1.496C4.6 1.704 4.668 1.888 4.668 2.048C4.668 2.232 4.656 2.44 4.632 2.672C4.608 2.896 4.568 3.104 4.512 3.296L3.324 3.02C3.356 2.828 3.384 2.624 3.408 2.408C3.44 2.192 3.456 1.968 3.456 1.736C3.456 1.472 3.316 1.34 3.036 1.34C2.684 1.34 2.404 1.44 2.196 1.64C1.988 1.832 1.884 2.164 1.884 2.636V4.952C1.884 5.352 1.872 5.672 1.848 5.912C1.832 6.152 1.824 6.32 1.824 6.416C1.824 6.696 1.968 6.836 2.256 6.836C2.632 6.836 2.94 6.748 3.18 6.572C3.42 6.396 3.628 6.116 3.804 5.732H3.948L4.944 6.308C4.776 6.82 4.544 7.216 4.248 7.496C3.96 7.768 3.628 7.904 3.252 7.904ZM10.1848 7.964C10.0008 7.892 9.83281 7.816 9.68081 7.736C9.52881 7.656 9.38481 7.568 9.24881 7.472C9.08081 7.608 8.88081 7.72 8.64881 7.808C8.41681 7.896 8.20081 7.94 8.00081 7.94C7.85681 7.94 7.66081 7.892 7.41281 7.796C7.16481 7.7 6.91281 7.572 6.65681 7.412C6.40081 7.252 6.18481 7.08 6.00881 6.896C5.83281 6.704 5.74481 6.52 5.74481 6.344C5.74481 6.224 5.75281 6.032 5.76881 5.768C5.79281 5.496 5.80481 5.188 5.80481 4.844V4.148C5.80481 3.94 5.81281 3.748 5.82881 3.572C5.85281 3.388 5.88881 3.228 5.93681 3.092H5.54081L4.90481 2.276L4.98881 2.072H6.52481L7.22081 3.008C7.12481 3.136 7.06081 3.296 7.02881 3.488C7.00481 3.68 6.99281 3.924 6.99281 4.22V4.928C6.99281 5.456 6.98481 5.84 6.96881 6.08C6.96081 6.32 6.95681 6.488 6.95681 6.584C6.95681 6.808 7.09281 6.92 7.36481 6.92C7.56481 6.92 7.75681 6.884 7.94081 6.812C8.13281 6.732 8.28881 6.62 8.40881 6.476C8.53681 6.324 8.60081 6.144 8.60081 5.936V4.148C8.60081 3.94 8.60881 3.748 8.62481 3.572C8.64881 3.388 8.68481 3.228 8.73281 3.092H8.33681L7.70081 2.276L7.78481 2.072H9.32081L10.0168 3.008C9.92081 3.136 9.85681 3.296 9.82481 3.488C9.80081 3.68 9.78881 3.924 9.78881 4.22V5.504C9.78881 5.944 9.78081 6.276 9.76481 6.5C9.74881 6.724 9.74081 6.888 9.74081 6.992C9.74081 7.12 9.78481 7.236 9.87281 7.34C9.96881 7.436 10.1248 7.54 10.3408 7.652L10.1848 7.964ZM12.96 7.964C12.352 7.964 11.876 7.768 11.532 7.376C11.188 6.976 10.948 6.436 10.812 5.756L11.196 5.648C11.348 6.032 11.52 6.304 11.712 6.464C11.912 6.624 12.18 6.704 12.516 6.704C12.9 6.704 13.224 6.596 13.488 6.38C13.76 6.164 13.896 5.9 13.896 5.588C13.896 5.412 13.832 5.324 13.704 5.324C13.6 5.324 13.448 5.348 13.248 5.396C13.056 5.444 12.864 5.496 12.672 5.552C12.48 5.6 12.336 5.624 12.24 5.624C12.096 5.624 11.948 5.556 11.796 5.42C11.652 5.284 11.516 5.112 11.388 4.904C11.26 4.688 11.156 4.464 11.076 4.232C10.996 4 10.956 3.784 10.956 3.584C10.956 3.112 11.104 2.716 11.4 2.396C11.704 2.076 12.136 1.916 12.696 1.916C13.176 1.916 13.568 2.044 13.872 2.3C14.176 2.556 14.408 2.948 14.568 3.476L14.148 3.62C13.932 3.276 13.604 3.104 13.164 3.104C12.78 3.104 12.456 3.204 12.192 3.404C11.928 3.604 11.796 3.856 11.796 4.16C11.796 4.32 11.872 4.4 12.024 4.4C12.144 4.4 12.3 4.376 12.492 4.328C12.684 4.272 12.876 4.22 13.068 4.172C13.26 4.124 13.416 4.1 13.536 4.1C13.72 4.1 13.9 4.204 14.076 4.412C14.252 4.62 14.396 4.884 14.508 5.204C14.62 5.524 14.676 5.852 14.676 6.188C14.676 6.724 14.528 7.156 14.232 7.484C13.936 7.804 13.512 7.964 12.96 7.964ZM17.6032 7.904C17.4832 7.904 17.3192 7.86 17.1112 7.772C16.9032 7.676 16.6912 7.556 16.4752 7.412C16.2592 7.26 16.0752 7.104 15.9232 6.944C15.7712 6.776 15.6952 6.616 15.6952 6.464C15.6952 6.376 15.6992 6.284 15.7072 6.188C15.7152 6.092 15.7272 5.968 15.7432 5.816C15.7592 5.656 15.7712 5.444 15.7792 5.18C15.7872 4.916 15.7912 4.572 15.7912 4.148C15.7912 3.988 15.7912 3.82 15.7912 3.644C15.7912 3.468 15.7872 3.284 15.7792 3.092H15.5632L14.9512 2.288L15.0352 2.096C15.4592 2.048 15.7272 1.92 15.8392 1.712C15.9512 1.504 16.0072 1.188 16.0072 0.763999L16.2112 0.692L16.9432 1.244C16.9432 1.388 16.9432 1.528 16.9432 1.664C16.9432 1.8 16.9432 1.936 16.9432 2.072H17.9632L18.5632 2.912L18.4792 3.092H16.9552C16.9552 3.38 16.9552 3.656 16.9552 3.92C16.9552 4.184 16.9552 4.436 16.9552 4.676C16.9552 5.14 16.9472 5.496 16.9312 5.744C16.9232 5.992 16.9112 6.176 16.8952 6.296C16.8792 6.416 16.8712 6.528 16.8712 6.632C16.8712 6.792 16.9552 6.872 17.1232 6.872C17.2672 6.872 17.4232 6.836 17.5912 6.764C17.7592 6.684 17.9152 6.588 18.0592 6.476H18.2272L18.7912 7.412C18.6792 7.548 18.5032 7.664 18.2632 7.76C18.0232 7.856 17.8032 7.904 17.6032 7.904ZM21.582 7.94C21.39 7.94 21.158 7.892 20.886 7.796C20.614 7.7 20.35 7.572 20.094 7.412C19.838 7.252 19.622 7.068 19.446 6.86C19.278 6.652 19.194 6.44 19.194 6.224C19.194 6.128 19.206 5.848 19.23 5.384C19.262 4.92 19.278 4.34 19.278 3.644C19.278 3.084 19.442 2.672 19.77 2.408C20.098 2.144 20.59 2.012 21.246 2.012C21.438 2.012 21.65 2.072 21.882 2.192C22.122 2.312 22.35 2.468 22.566 2.66C22.782 2.852 22.958 3.056 23.094 3.272C23.238 3.48 23.31 3.676 23.31 3.86C23.31 4.164 23.302 4.492 23.286 4.844C23.278 5.196 23.274 5.648 23.274 6.2C23.274 6.712 23.134 7.132 22.854 7.46C22.574 7.78 22.15 7.94 21.582 7.94ZM20.814 6.92C21.254 6.92 21.574 6.828 21.774 6.644C21.982 6.46 22.086 6.188 22.086 5.828C22.086 5.572 22.09 5.284 22.098 4.964C22.106 4.636 22.114 4.336 22.122 4.064C22.13 3.784 22.134 3.588 22.134 3.476C22.134 3.34 22.11 3.24 22.062 3.176C22.014 3.104 21.918 3.068 21.774 3.068C21.342 3.068 21.01 3.144 20.778 3.296C20.554 3.44 20.442 3.716 20.442 4.124C20.442 4.892 20.434 5.472 20.418 5.864C20.402 6.248 20.394 6.508 20.394 6.644C20.394 6.828 20.534 6.92 20.814 6.92ZM26.0339 8C25.5219 7.808 25.1259 7.636 24.8459 7.484C24.5739 7.324 24.4379 7.18 24.4379 7.052C24.4379 6.94 24.4499 6.768 24.4739 6.536C24.5059 6.296 24.5219 6.064 24.5219 5.84V4.304C24.5219 4.144 24.5259 3.944 24.5339 3.704C24.5499 3.464 24.5779 3.26 24.6179 3.092H24.1739L23.5499 2.264L23.6339 2.072H24.7619C24.7939 2.072 24.8619 2.124 24.9659 2.228C25.0699 2.332 25.1739 2.452 25.2779 2.588C25.5899 2.188 25.9819 1.988 26.4539 1.988H26.6219C26.7819 1.988 26.9619 2.056 27.1619 2.192C27.3619 2.32 27.5499 2.472 27.7259 2.648C27.8939 2.408 28.0939 2.24 28.3259 2.144C28.5579 2.04 28.7979 1.988 29.0459 1.988H29.2499C29.4099 1.988 29.5859 2.052 29.7779 2.18C29.9779 2.308 30.1659 2.464 30.3419 2.648C30.5259 2.832 30.6739 3.016 30.7859 3.2C30.9059 3.376 30.9659 3.52 30.9659 3.632C30.9659 3.832 30.9579 4.08 30.9419 4.376C30.9259 4.672 30.9179 4.912 30.9179 5.096V5.972C30.9179 6.26 30.9059 6.516 30.8819 6.74C30.8579 6.956 30.8459 7.12 30.8459 7.232C30.8459 7.312 30.8739 7.376 30.9299 7.424C30.9939 7.464 31.1459 7.548 31.3859 7.676L31.2419 8C30.7299 7.808 30.3339 7.636 30.0539 7.484C29.7819 7.324 29.6459 7.18 29.6459 7.052C29.6459 6.94 29.6579 6.768 29.6819 6.536C29.7139 6.296 29.7299 6.064 29.7299 5.84V5.216C29.7299 4.96 29.7379 4.668 29.7539 4.34C29.7699 4.012 29.7779 3.724 29.7779 3.476C29.7779 3.316 29.7579 3.208 29.7179 3.152C29.6779 3.096 29.5899 3.068 29.4539 3.068C28.7579 3.068 28.3819 3.392 28.3259 4.04C28.3259 4.224 28.3219 4.412 28.3139 4.604C28.3139 4.796 28.3139 4.96 28.3139 5.096V5.972C28.3139 6.26 28.3019 6.516 28.2779 6.74C28.2539 6.956 28.2419 7.12 28.2419 7.232C28.2419 7.312 28.2699 7.376 28.3259 7.424C28.3899 7.464 28.5419 7.548 28.7819 7.676L28.6379 8C28.1259 7.808 27.7299 7.636 27.4499 7.484C27.1779 7.324 27.0419 7.18 27.0419 7.052C27.0419 6.94 27.0539 6.768 27.0779 6.536C27.1099 6.296 27.1259 6.064 27.1259 5.84V5.216C27.1259 4.96 27.1299 4.668 27.1379 4.34C27.1539 4.012 27.1619 3.724 27.1619 3.476C27.1619 3.316 27.1419 3.208 27.1019 3.152C27.0619 3.096 26.9739 3.068 26.8379 3.068C26.4459 3.068 26.1579 3.184 25.9739 3.416C25.7979 3.64 25.7099 3.952 25.7099 4.352V5.972C25.7099 6.26 25.6979 6.516 25.6739 6.74C25.6499 6.956 25.6379 7.12 25.6379 7.232C25.6379 7.312 25.6659 7.376 25.7219 7.424C25.7859 7.464 25.9379 7.548 26.1779 7.676L26.0339 8ZM34.4637 7.916C34.2717 7.916 34.0357 7.868 33.7557 7.772C33.4757 7.668 33.1957 7.536 32.9157 7.376C32.6437 7.208 32.4157 7.028 32.2317 6.836C32.0477 6.636 31.9557 6.44 31.9557 6.248C31.9557 6.056 31.9677 5.724 31.9917 5.252C32.0237 4.78 32.0397 4.216 32.0397 3.56C32.0397 2.52 32.6077 2 33.7437 2C33.9197 2 34.1237 2.056 34.3557 2.168C34.5877 2.272 34.8117 2.412 35.0277 2.588C35.2437 2.756 35.4237 2.932 35.5677 3.116C35.7117 3.3 35.7837 3.472 35.7837 3.632V4.616C35.7837 5.264 35.4237 5.588 34.7037 5.588C34.4797 5.588 34.2237 5.576 33.9357 5.552C33.6477 5.52 33.3917 5.484 33.1677 5.444C33.1597 5.708 33.1517 5.948 33.1437 6.164C33.1437 6.372 33.1437 6.492 33.1437 6.524C33.1437 6.652 33.1757 6.744 33.2397 6.8C33.3037 6.856 33.4197 6.884 33.5877 6.884C33.8357 6.884 34.1037 6.848 34.3917 6.776C34.6877 6.696 34.9517 6.58 35.1837 6.428H35.3637L36.0117 7.412C35.8597 7.556 35.6317 7.676 35.3277 7.772C35.0317 7.868 34.7437 7.916 34.4637 7.916ZM33.2037 3.944C33.2037 4.008 33.1997 4.104 33.1917 4.232C33.1917 4.36 33.1917 4.504 33.1917 4.664C33.4237 4.688 33.6917 4.7 33.9957 4.7C34.2277 4.7 34.3877 4.644 34.4757 4.532C34.5717 4.412 34.6197 4.232 34.6197 3.992V3.344C34.6197 3.256 34.5957 3.18 34.5477 3.116C34.4997 3.052 34.3957 3.02 34.2357 3.02C33.9157 3.02 33.6637 3.088 33.4797 3.224C33.2957 3.352 33.2037 3.592 33.2037 3.944ZM38.8864 8.108C38.1984 7.884 37.7024 7.692 37.3984 7.532C37.0944 7.364 36.9424 7.244 36.9424 7.172C36.9424 7.084 36.9544 6.932 36.9784 6.716C37.0104 6.5 37.0264 6.164 37.0264 5.708V4.22C37.0264 4.06 37.0344 3.872 37.0504 3.656C37.0664 3.432 37.0904 3.244 37.1224 3.092H36.6784L36.0544 2.264L36.1384 2.072H37.2664C37.3064 2.072 37.3784 2.132 37.4824 2.252C37.5944 2.364 37.7064 2.488 37.8184 2.624C37.9464 2.416 38.1224 2.264 38.3464 2.168C38.5784 2.072 38.8224 2.024 39.0784 2.024C39.2064 2.024 39.3024 2.032 39.3664 2.048L39.9664 2.888L39.8704 3.032C39.3104 3.024 38.8944 3.132 38.6224 3.356C38.3504 3.58 38.2144 3.992 38.2144 4.592V5.876C38.2144 6.276 38.2024 6.588 38.1784 6.812C38.1624 7.028 38.1544 7.172 38.1544 7.244C38.1544 7.292 38.1704 7.336 38.2024 7.376C38.2344 7.408 38.3104 7.448 38.4304 7.496C38.5584 7.544 38.7584 7.624 39.0304 7.736L38.8864 8.108ZM43.4122 7.904C43.1882 7.904 42.9242 7.852 42.6202 7.748C42.3162 7.636 42.0162 7.496 41.7202 7.328C41.4322 7.16 41.1922 6.984 41.0002 6.8C40.8162 6.616 40.7242 6.448 40.7242 6.296C40.7242 6.088 40.7362 5.824 40.7602 5.504C40.7922 5.176 40.8082 4.832 40.8082 4.472V2.396C40.8082 1.612 40.9682 1.056 41.2882 0.728C41.6162 0.392 42.0682 0.224 42.6442 0.224C42.8842 0.224 43.1282 0.288 43.3762 0.416C43.6322 0.543999 43.8682 0.704 44.0842 0.896C44.3082 1.088 44.4882 1.288 44.6242 1.496C44.7602 1.704 44.8282 1.888 44.8282 2.048C44.8282 2.232 44.8162 2.44 44.7922 2.672C44.7682 2.896 44.7282 3.104 44.6722 3.296L43.4842 3.02C43.5162 2.828 43.5442 2.624 43.5682 2.408C43.6002 2.192 43.6162 1.968 43.6162 1.736C43.6162 1.472 43.4762 1.34 43.1962 1.34C42.8442 1.34 42.5642 1.44 42.3562 1.64C42.1482 1.832 42.0442 2.164 42.0442 2.636V4.952C42.0442 5.352 42.0322 5.672 42.0082 5.912C41.9922 6.152 41.9842 6.32 41.9842 6.416C41.9842 6.696 42.1282 6.836 42.4162 6.836C42.7922 6.836 43.1002 6.748 43.3402 6.572C43.5802 6.396 43.7882 6.116 43.9642 5.732H44.1082L45.1042 6.308C44.9362 6.82 44.7042 7.216 44.4082 7.496C44.1202 7.768 43.7882 7.904 43.4122 7.904ZM48.0078 7.94C47.8158 7.94 47.5838 7.892 47.3118 7.796C47.0398 7.7 46.7758 7.572 46.5198 7.412C46.2638 7.252 46.0478 7.068 45.8718 6.86C45.7038 6.652 45.6198 6.44 45.6198 6.224C45.6198 6.128 45.6318 5.848 45.6558 5.384C45.6878 4.92 45.7038 4.34 45.7038 3.644C45.7038 3.084 45.8678 2.672 46.1958 2.408C46.5238 2.144 47.0158 2.012 47.6718 2.012C47.8638 2.012 48.0758 2.072 48.3078 2.192C48.5478 2.312 48.7758 2.468 48.9918 2.66C49.2078 2.852 49.3838 3.056 49.5198 3.272C49.6638 3.48 49.7358 3.676 49.7358 3.86C49.7358 4.164 49.7278 4.492 49.7118 4.844C49.7038 5.196 49.6998 5.648 49.6998 6.2C49.6998 6.712 49.5598 7.132 49.2798 7.46C48.9998 7.78 48.5758 7.94 48.0078 7.94ZM47.2398 6.92C47.6798 6.92 47.9998 6.828 48.1998 6.644C48.4078 6.46 48.5118 6.188 48.5118 5.828C48.5118 5.572 48.5158 5.284 48.5238 4.964C48.5318 4.636 48.5398 4.336 48.5478 4.064C48.5558 3.784 48.5598 3.588 48.5598 3.476C48.5598 3.34 48.5358 3.24 48.4878 3.176C48.4398 3.104 48.3438 3.068 48.1998 3.068C47.7678 3.068 47.4358 3.144 47.2038 3.296C46.9798 3.44 46.8678 3.716 46.8678 4.124C46.8678 4.892 46.8598 5.472 46.8438 5.864C46.8278 6.248 46.8198 6.508 46.8198 6.644C46.8198 6.828 46.9598 6.92 47.2398 6.92ZM52.4597 8C51.9477 7.808 51.5517 7.636 51.2717 7.484C50.9997 7.324 50.8637 7.18 50.8637 7.052C50.8637 6.94 50.8757 6.768 50.8997 6.536C50.9317 6.296 50.9477 6.064 50.9477 5.84V4.304C50.9477 4.144 50.9517 3.944 50.9597 3.704C50.9757 3.464 51.0037 3.26 51.0437 3.092H50.5997L49.9757 2.264L50.0597 2.072H51.1877C51.2197 2.072 51.2877 2.128 51.3917 2.24C51.5037 2.344 51.6157 2.464 51.7277 2.6C51.8797 2.392 52.0677 2.24 52.2917 2.144C52.5237 2.04 52.7477 1.988 52.9637 1.988H53.2157C53.3757 1.988 53.5517 2.052 53.7437 2.18C53.9437 2.308 54.1357 2.464 54.3197 2.648C54.5117 2.832 54.6677 3.016 54.7877 3.2C54.9077 3.376 54.9677 3.52 54.9677 3.632C54.9677 3.832 54.9597 4.08 54.9437 4.376C54.9277 4.672 54.9197 4.912 54.9197 5.096V5.972C54.9197 6.26 54.9077 6.516 54.8837 6.74C54.8597 6.956 54.8477 7.12 54.8477 7.232C54.8477 7.312 54.8757 7.376 54.9317 7.424C54.9957 7.464 55.1477 7.548 55.3877 7.676L55.2437 8C54.7317 7.808 54.3357 7.636 54.0557 7.484C53.7837 7.324 53.6477 7.18 53.6477 7.052C53.6477 6.94 53.6597 6.768 53.6837 6.536C53.7157 6.296 53.7317 6.064 53.7317 5.84V5.216C53.7317 4.96 53.7397 4.668 53.7557 4.34C53.7717 4.012 53.7797 3.724 53.7797 3.476C53.7797 3.316 53.7597 3.208 53.7197 3.152C53.6797 3.096 53.5917 3.068 53.4557 3.068C53.0077 3.068 52.6757 3.184 52.4597 3.416C52.2437 3.64 52.1357 3.952 52.1357 4.352V5.972C52.1357 6.26 52.1237 6.516 52.0997 6.74C52.0757 6.956 52.0637 7.12 52.0637 7.232C52.0637 7.312 52.0917 7.376 52.1477 7.424C52.2117 7.464 52.3637 7.548 52.6037 7.676L52.4597 8ZM57.862 8C57.35 7.808 56.954 7.636 56.674 7.484C56.402 7.324 56.266 7.18 56.266 7.052C56.266 6.94 56.278 6.768 56.302 6.536C56.334 6.296 56.35 6.064 56.35 5.84V4.304C56.35 4.144 56.354 3.944 56.362 3.704C56.378 3.464 56.406 3.26 56.446 3.092H56.002L55.378 2.264L55.462 2.072H56.59C56.622 2.072 56.69 2.128 56.794 2.24C56.906 2.344 57.018 2.464 57.13 2.6C57.282 2.392 57.47 2.24 57.694 2.144C57.926 2.04 58.15 1.988 58.366 1.988H58.618C58.778 1.988 58.954 2.052 59.146 2.18C59.346 2.308 59.538 2.464 59.722 2.648C59.914 2.832 60.07 3.016 60.19 3.2C60.31 3.376 60.37 3.52 60.37 3.632C60.37 3.832 60.362 4.08 60.346 4.376C60.33 4.672 60.322 4.912 60.322 5.096V5.972C60.322 6.26 60.31 6.516 60.286 6.74C60.262 6.956 60.25 7.12 60.25 7.232C60.25 7.312 60.278 7.376 60.334 7.424C60.398 7.464 60.55 7.548 60.79 7.676L60.646 8C60.134 7.808 59.738 7.636 59.458 7.484C59.186 7.324 59.05 7.18 59.05 7.052C59.05 6.94 59.062 6.768 59.086 6.536C59.118 6.296 59.134 6.064 59.134 5.84V5.216C59.134 4.96 59.142 4.668 59.158 4.34C59.174 4.012 59.182 3.724 59.182 3.476C59.182 3.316 59.162 3.208 59.122 3.152C59.082 3.096 58.994 3.068 58.858 3.068C58.41 3.068 58.078 3.184 57.862 3.416C57.646 3.64 57.538 3.952 57.538 4.352V5.972C57.538 6.26 57.526 6.516 57.502 6.74C57.478 6.956 57.466 7.12 57.466 7.232C57.466 7.312 57.494 7.376 57.55 7.424C57.614 7.464 57.766 7.548 58.006 7.676L57.862 8ZM63.9364 7.916C63.7444 7.916 63.5084 7.868 63.2284 7.772C62.9484 7.668 62.6684 7.536 62.3884 7.376C62.1164 7.208 61.8884 7.028 61.7044 6.836C61.5204 6.636 61.4284 6.44 61.4284 6.248C61.4284 6.056 61.4404 5.724 61.4644 5.252C61.4964 4.78 61.5124 4.216 61.5124 3.56C61.5124 2.52 62.0804 2 63.2164 2C63.3924 2 63.5964 2.056 63.8284 2.168C64.0604 2.272 64.2844 2.412 64.5004 2.588C64.7164 2.756 64.8964 2.932 65.0404 3.116C65.1844 3.3 65.2564 3.472 65.2564 3.632V4.616C65.2564 5.264 64.8964 5.588 64.1764 5.588C63.9524 5.588 63.6964 5.576 63.4084 5.552C63.1204 5.52 62.8644 5.484 62.6404 5.444C62.6324 5.708 62.6244 5.948 62.6164 6.164C62.6164 6.372 62.6164 6.492 62.6164 6.524C62.6164 6.652 62.6484 6.744 62.7124 6.8C62.7764 6.856 62.8924 6.884 63.0604 6.884C63.3084 6.884 63.5764 6.848 63.8644 6.776C64.1604 6.696 64.4244 6.58 64.6564 6.428H64.8364L65.4844 7.412C65.3324 7.556 65.1044 7.676 64.8004 7.772C64.5044 7.868 64.2164 7.916 63.9364 7.916ZM62.6764 3.944C62.6764 4.008 62.6724 4.104 62.6644 4.232C62.6644 4.36 62.6644 4.504 62.6644 4.664C62.8964 4.688 63.1644 4.7 63.4684 4.7C63.7004 4.7 63.8604 4.644 63.9484 4.532C64.0444 4.412 64.0924 4.232 64.0924 3.992V3.344C64.0924 3.256 64.0684 3.18 64.0204 3.116C63.9724 3.052 63.8684 3.02 63.7084 3.02C63.3884 3.02 63.1364 3.088 62.9524 3.224C62.7684 3.352 62.6764 3.592 62.6764 3.944ZM69.211 6.14L70.219 6.788C70.059 7.164 69.827 7.452 69.523 7.652C69.227 7.852 68.891 7.952 68.515 7.952C68.275 7.952 68.019 7.9 67.747 7.796C67.475 7.684 67.219 7.544 66.979 7.376C66.739 7.208 66.539 7.032 66.379 6.848C66.227 6.664 66.151 6.492 66.151 6.332C66.151 6.228 66.151 6.068 66.151 5.852C66.159 5.636 66.163 5.412 66.163 5.18C66.171 4.94 66.175 4.74 66.175 4.58V3.596C66.175 3.068 66.335 2.668 66.655 2.396C66.975 2.116 67.403 1.976 67.939 1.976C68.107 1.976 68.303 2.028 68.527 2.132C68.751 2.228 68.971 2.36 69.187 2.528C69.403 2.688 69.583 2.868 69.727 3.068C69.871 3.26 69.943 3.452 69.943 3.644C69.943 3.852 69.935 4.036 69.919 4.196C69.903 4.348 69.883 4.488 69.859 4.616L68.623 4.376C68.687 3.992 68.719 3.656 68.719 3.368C68.719 3.232 68.691 3.14 68.635 3.092C68.587 3.044 68.507 3.02 68.395 3.02C67.707 3.02 67.363 3.364 67.363 4.052V5.012C67.363 5.524 67.355 5.9 67.339 6.14C67.331 6.372 67.327 6.556 67.327 6.692C67.327 6.78 67.367 6.848 67.447 6.896C67.527 6.944 67.627 6.968 67.747 6.968C68.043 6.968 68.295 6.908 68.503 6.788C68.711 6.66 68.899 6.456 69.067 6.176L69.211 6.14ZM72.9274 7.904C72.8074 7.904 72.6434 7.86 72.4354 7.772C72.2274 7.676 72.0154 7.556 71.7994 7.412C71.5834 7.26 71.3994 7.104 71.2474 6.944C71.0954 6.776 71.0194 6.616 71.0194 6.464C71.0194 6.376 71.0234 6.284 71.0314 6.188C71.0394 6.092 71.0514 5.968 71.0674 5.816C71.0834 5.656 71.0954 5.444 71.1034 5.18C71.1114 4.916 71.1154 4.572 71.1154 4.148C71.1154 3.988 71.1154 3.82 71.1154 3.644C71.1154 3.468 71.1114 3.284 71.1034 3.092H70.8874L70.2754 2.288L70.3594 2.096C70.7834 2.048 71.0514 1.92 71.1634 1.712C71.2754 1.504 71.3314 1.188 71.3314 0.763999L71.5354 0.692L72.2674 1.244C72.2674 1.388 72.2674 1.528 72.2674 1.664C72.2674 1.8 72.2674 1.936 72.2674 2.072H73.2874L73.8874 2.912L73.8034 3.092H72.2794C72.2794 3.38 72.2794 3.656 72.2794 3.92C72.2794 4.184 72.2794 4.436 72.2794 4.676C72.2794 5.14 72.2714 5.496 72.2554 5.744C72.2474 5.992 72.2354 6.176 72.2194 6.296C72.2034 6.416 72.1954 6.528 72.1954 6.632C72.1954 6.792 72.2794 6.872 72.4474 6.872C72.5914 6.872 72.7474 6.836 72.9154 6.764C73.0834 6.684 73.2394 6.588 73.3834 6.476H73.5514L74.1154 7.412C74.0034 7.548 73.8274 7.664 73.5874 7.76C73.3474 7.856 73.1274 7.904 72.9274 7.904Z" fill="#6B4226"/>
</svg>
